<?xml version="1.0" standalone="no"?><!DOCTYPE svg PUBLIC "-//W3C//DTD SVG 1.1//EN" "http://www.w3.org/Graphics/SVG/1.1/DTD/svg11.dtd"><svg t="1760598925401" class="icon" viewBox="0 0 1024 1024" version="1.1" xmlns="http://www.w3.org/2000/svg" p-id="11559" xmlns:xlink="http://www.w3.org/1999/xlink" width="200" height="200"><path d="M316.397037 796.254815c-1.517037 0-3.081481-0.18963-4.598518-0.663704-1.706667-0.474074-41.765926-12.468148-74.666667-54.945185-29.534815-38.115556-59.06963-109.321481-32.142222-232.201482 2.275556-9.765926 56.50963-234.42963 192.711111-306.394074 139.851852-73.908148 286.435556 10.998519 333.795555 72.865186 19.863704 25.979259 40.722963 70.58963 34.038519 110.933333-3.934815 23.798519-17.066667 43.70963-38.020741 57.647407a16.568889 16.568889 0 0 1-22.992593-4.598518 16.568889 16.568889 0 0 1 4.598519-22.992593c13.463704-8.96 21.191111-20.574815 23.656296-35.508148 4.645926-27.97037-10.524444-63.004444-27.638518-85.333333-41.434074-54.091852-169.623704-128.331852-291.982222-63.668148-122.832593 64.900741-175.36 282.216296-175.881482 284.397037-45.226667 206.459259 78.506667 246.376296 83.768889 247.94074 8.722963 2.654815 13.748148 11.851852 11.140741 20.622223a16.592593 16.592593 0 0 1-15.881482 11.899259z" fill="#424242" p-id="11560"></path><path d="M733.155556 429.700741s70.494815 132.314074 70.494814 210.251852" fill="#3F4041" p-id="11561"></path><path d="M803.65037 656.545185c-9.14963 0-16.592593-7.442963-16.592592-16.592592 0-72.865185-67.84-201.14963-68.551111-202.42963a16.564148 16.564148 0 0 1 6.826666-22.423704c8.106667-4.314074 18.157037-1.232593 22.423704 6.826667 2.939259 5.546667 72.438519 136.912593 72.438519 218.026667 0 9.14963-7.442963 16.592593-16.592593 16.592592zM235.472593 463.407407s49.967407-23.22963 135.30074 16.64 104.485926 44.183704 144.734815 42.097778c20.527407-1.042963 75.093333-8.722963 76.942222 48.782222 1.848889 57.505185-66.797037 75.757037-160.474074 68.930371-60.207407-4.361481-93.25037-11.662222-109.131852-16.355556-13.795556-4.02963-27.733333-7.395556-41.908148-9.671111-23.04-3.697778-52.148148-7.300741-58.595555-3.034074-10.951111 7.253333 13.084444-147.437037 13.084444-147.437037zM219.543704 695.277037s-16.497778 18.536296-8.675556 37.12c7.822222 18.536296 37.167407 20.66963 40.438519 12.041482 3.271111-8.580741-31.762963-49.161481-31.762963-49.161482z" fill="#424242" p-id="11562"></path><path d="M728.841481 444.823704s-17.635556 30.625185-69.546666 48.213333c-51.958519 17.635556-66.797037 45.463704-49.161482 77.89037 17.635556 32.474074 115.342222 46.933333 158.293334-21.997037l-39.585186-104.154074zM560.924444 776.817778a16.587852 16.587852 0 0 1-1.943703-33.042963c28.634074-3.460741 109.605926-16.497778 139.662222-35.460741 7.727407-4.882963 18.014815-2.56 22.897778 5.167407 4.882963 7.727407 2.56 18.014815-5.167408 22.897778-42.571852 26.832593-148.906667 39.822222-153.41037 40.343704-0.663704 0.094815-1.327407 0.142222-1.991111 0.142222z" fill="#424242" p-id="11563"></path><path d="M312.367407 765.771852s3.697778-86.281481 102.968889-97.374815c99.223704-11.140741 111.217778 47.312593 111.217778 47.312593s42.002963-30.577778 56.699259 15.786666c12.515556 39.585185-35.223704 96.474074-86.281481 100.171852 0 0-12.705185 0-24.888889-7.585185-11.899259-7.395556-26.074074-10.145185-39.86963-7.822222-32.853333 5.546667-74.334815 15.407407-128.142222-28.207408l8.343704-22.281481zM697.125926 721.256296s-18.488889-115.105185 92.491852-114.488889c0 0 9.339259-15.928889 27.117037-14.364444 12.136296 1.042963 29.25037 5.925926 22.708148 58.69037s-30.388148 85.522963-67.271111 89.742223c-29.44 3.365926-56.888889-3.271111-74.998519-19.57926zM592.545185 361.244444c-2.512593 0-4.977778-0.995556-6.874074-2.939259l-5.925926-6.162963c-3.602963-3.792593-3.460741-9.765926 0.284445-13.416296 3.792593-3.602963 9.765926-3.460741 13.416296 0.284444l5.925926 6.162963c3.602963 3.792593 3.460741 9.765926-0.284445 13.416297-1.848889 1.754074-4.171852 2.607407-6.542222 2.607407zM577.327407 393.481481c-4.219259 0-8.059259-0.616296-10.903703-1.469629-3.792593-1.09037-5.925926-5.025185-4.835556-8.817778 1.09037-3.745185 5.025185-5.925926 8.770371-4.835555 0.758519 0.18963 15.834074 4.266667 21.048888-6.257778a7.111111 7.111111 0 0 1 11.425186-1.801482s2.512593 2.417778 5.831111 2.180741c3.508148-0.237037 6.779259-3.413333 8.912592-6.020741 2.465185-3.034074 6.968889-3.508148 10.002963-1.042963 3.034074 2.465185 3.508148 6.968889 1.042963 10.002963-5.831111 7.158519-12.325926 10.951111-19.437037 11.282963-3.697778 0.18963-6.968889-0.663704-9.576296-1.801481-6.21037 6.542222-14.838519 8.580741-22.328889 8.58074z" fill="#424242" p-id="11564"></path><path d="M598.234074 421.925926c-6.21037 0-10.619259-2.275556-13.416296-4.456296-10.24-8.011852-10.808889-23.514074-10.856297-25.268149-0.094815-3.934815 3.034074-7.158519 6.968889-7.253333 4.02963-0.18963 7.158519 3.034074 7.253334 6.921482 0.094815 2.702222 1.232593 11.140741 5.451852 14.411851 0.711111 0.521481 2.797037 2.180741 7.869629 1.042963 3.84-0.853333 6.4-2.56 8.106667-5.451851 3.934815-6.637037 2.085926-17.872593 1.09037-21.285926a7.10163 7.10163 0 0 1 13.653334-3.887408c0.568889 1.943704 5.167407 19.437037-2.56 32.426667-3.697778 6.162963-9.623704 10.334815-17.208889 12.041481-2.275556 0.521481-4.408889 0.711111-6.352593 0.711112zM532.100741 326.58963c-2.844444-12.515556-14.885926-21.001481-27.496297-18.536297-4.598519 0.900741-42.951111 10.287407-42.808888 54.850371 0.094815 33.232593 48.545185 40.817778 64.758518 8.059259 8.722963-17.635556 8.059259-33.46963 5.594074-44.373333z m-16.165926 8.628148l-2.275556 3.413333c-0.900741 1.374815-2.417778 2.133333-3.934815 2.133333-0.900741 0-1.801481-0.237037-2.607407-0.805925a4.788148 4.788148 0 0 1-1.327407-6.58963l2.275555-3.413333c1.422222-2.180741 4.361481-2.74963 6.58963-1.327408 2.180741 1.46963 2.74963 4.408889 1.327407 6.58963zM643.365926 299.994074c-32.900741-22.897778-40.343704 8.722963-40.343704 8.722963s-5.831111 11.425185 16.402963 33.706667c22.281481 22.281481 42.619259 15.265185 47.54963 3.128889 3.271111-8.011852 9.244444-22.708148-23.608889-45.558519z m-16.497778 19.2c-0.948148 1.232593-2.37037 1.896296-3.792592 1.896296-0.995556 0-1.991111-0.331852-2.844445-0.948148l-2.275555-1.706666c-2.085926-1.564444-2.512593-4.551111-0.948149-6.637037 1.564444-2.085926 4.551111-2.512593 6.637037-0.948149l2.275556 1.706667c2.085926 1.564444 2.512593 4.551111 0.948148 6.637037zM330.951111 230.162963c20.954074 19.057778 22.992593 48.071111 5.973333 68.882963-13.226667 16.165926-48.782222 22.328889-65.327407 11.188148-10.714074-7.205926-16.402963-17.303704-14.317037-30.245926 2.085926-13.226667 9.007407-23.134815 22.992593-26.074074 4.124444-0.853333 5.404444-2.37037 5.546666-6.637037 0.663704-21.380741 19.911111-32.047407 38.4-21.522963 2.797037 1.611852 5.451852 3.602963 6.731852 4.456296zM647.395556 201.481481c-7.774815 18.678519-26.785185 26.974815-44.847408 20.527408-14.032593-5.025185-26.69037-27.401481-23.182222-41.197037 2.275556-8.912593 7.68-15.17037 16.877037-16.877037 9.386667-1.754074 17.73037 0.521481 23.04 9.197037 1.564444 2.56 2.891852 3.081481 5.783704 2.133333 14.506667-4.693333 26.311111 5.688889 23.656296 20.622222-0.426667 2.275556-1.09037 4.503704-1.374815 5.594074z" fill="#424242" p-id="11565"></path></svg>